<svg width="12" height="7" viewBox="0 0 12 7" fill="none" xmlns="http://www.w3.org/2000/svg">
    <path fill-rule="evenodd" clip-rule="evenodd" d="M6.6967 6.3033C6.50144 6.49856 6.18486 6.49856 5.9896 6.3033L1.03985 1.35355C0.844586 1.15829 0.844586 0.841708 1.03985 0.646446C1.23511 0.451184 1.55169 0.451184 1.74695 0.646446L6.6967 5.59619C6.89196 5.79146 6.89196 6.10804 6.6967 6.3033Z" fill="white"/>
    <path fill-rule="evenodd" clip-rule="evenodd" d="M5.9896 6.3033C5.79433 6.10804 5.79433 5.79146 5.9896 5.59619L10.9393 0.646446C11.1346 0.451184 11.4512 0.451184 11.6464 0.646447C11.8417 0.841709 11.8417 1.15829 11.6464 1.35355L6.6967 6.3033C6.50144 6.49856 6.18486 6.49856 5.9896 6.3033Z" fill="white"/>
</svg>
