<svg width="12" height="7" viewBox="0 0 12 7" fill="none" xmlns="http://www.w3.org/2000/svg">
    <path fill-rule="evenodd" clip-rule="evenodd" d="M5.98961 0.696699C6.18487 0.501437 6.50145 0.501437 6.69671 0.696699L11.6465 5.64645C11.8417 5.84171 11.8417 6.15829 11.6465 6.35355C11.4512 6.54882 11.1346 6.54882 10.9394 6.35355L5.98961 1.40381C5.79435 1.20854 5.79435 0.891961 5.98961 0.696699Z" fill="white"/>
    <path fill-rule="evenodd" clip-rule="evenodd" d="M6.69671 0.696699C6.89198 0.891961 6.89198 1.20854 6.69671 1.40381L1.74697 6.35355C1.5517 6.54882 1.23512 6.54882 1.03986 6.35355C0.844598 6.15829 0.844598 5.84171 1.03986 5.64645L5.98961 0.696699C6.18487 0.501437 6.50145 0.501437 6.69671 0.696699Z" fill="white"/>
</svg>
